<svg xmlns="http://www.w3.org/2000/svg" viewBox="0 0 48 48">
  <defs>
    <linearGradient id="homeGradient" x1="24" y1="8" x2="24" y2="43" gradientUnits="userSpaceOnUse">
      <stop stop-color="#C9A9FF"/>
      <stop offset="0.52" stop-color="#9D6BEF"/>
      <stop offset="1" stop-color="#7948D6"/>
    </linearGradient>
    <filter id="homeGlow" x="2" y="4" width="44" height="43" filterUnits="userSpaceOnUse">
      <feDropShadow dx="0" dy="2.3" stdDeviation="1.8" flood-color="#7141C8" flood-opacity="0.28"/>
    </filter>
  </defs>
  <path d="M8.8 22.4 22.5 11.2a2.4 2.4 0 0 1 3 0l13.7 11.2v14.9a3.4 3.4 0 0 1-3.4 3.4h-7.1V30.6a4.7 4.7 0 0 0-9.4 0v10.1h-7.1a3.4 3.4 0 0 1-3.4-3.4Z" fill="url(#homeGradient)" filter="url(#homeGlow)"/>
  <path d="M12.8 22.2 23 13.8a1.55 1.55 0 0 1 2 0" fill="none" stroke="#F0E7FF" stroke-width="1.8" stroke-linecap="round" opacity="0.78"/>
  <rect x="21" y="31" width="6" height="9.7" rx="3" fill="#FFFDFB"/>
</svg>
